<?xml version="1.0" encoding="UTF-8"?>
<svg version="1.1" xmlns="http://www.w3.org/2000/svg" width="1024" height="1024">
<path d="M0 0 C337.92 0 675.84 0 1024 0 C1024 337.92 1024 675.84 1024 1024 C686.08 1024 348.16 1024 0 1024 C0 686.08 0 348.16 0 0 Z " fill="#1B1B1B" transform="translate(0,0)"/>
<path d="M0 0 C0.73202637 0.22461914 1.46405273 0.44923828 2.21826172 0.68066406 C34.17065444 10.78482692 60.4895226 34.25193713 75.87890625 63.71875 C81.2300048 74.341185 84.60446559 85.37948964 87 97 C87.18095215 97.8770459 87.3619043 98.7540918 87.54833984 99.65771484 C89.04334587 107.63772477 89.30102722 115.39517664 89.25 123.5 C89.25773437 124.72847656 89.26546875 125.95695313 89.2734375 127.22265625 C89.24993717 138.30306071 87.77874045 148.64429048 84.375 159.1875 C83.9869519 160.3933374 83.9869519 160.3933374 83.59106445 161.62353516 C72.45897493 195.04274298 49.29746625 220.22721912 18.4375 236.625 C-13.53336562 252.03696437 -48.83050528 254.72624587 -82.5625 243.375 C-115.73755605 231.37300891 -142.22788216 207.12448242 -157.18359375 175.23046875 C-160.51453222 167.72305946 -162.91722697 159.93413214 -165 152 C-165.17934082 151.31921387 -165.35868164 150.63842773 -165.54345703 149.93701172 C-173.61339359 117.56911324 -166.31743262 83.42835329 -149.5859375 55.14453125 C-131.51598636 25.69495764 -103.15337405 5.88397119 -69.85253906 -2.54345703 C-47.30009225 -7.75942257 -22.01499059 -6.89714496 0 0 Z " fill="#1B1B1A" transform="translate(450,473)"/>
<path d="M0 0 C5.08304182 0.48373359 8.46019485 2.30005787 12.625 5.0625 C18.27854803 8.6383342 23.98201412 11.42229484 30.21484375 13.8359375 C31.07775528 14.17531845 31.94066681 14.5146994 32.82972717 14.86436462 C41.59312227 18.28360966 50.43322027 21.48675393 59.29956055 24.62768555 C61.93509202 25.56164668 64.56826091 26.50203935 67.20117188 27.44335938 C68.95551144 28.06831986 70.71006842 28.69267036 72.46484375 29.31640625 C73.32475922 29.62212555 74.18467468 29.92784485 75.07064819 30.24282837 C79.5988492 31.84045999 84.13896996 33.38063747 88.71142578 34.84716797 C89.6499086 35.15033432 90.58839142 35.45350067 91.55531311 35.76585388 C93.33430342 36.33702508 95.11623412 36.89915676 96.90159607 37.4500885 C104.08183291 39.75770891 110.49073708 43.1463014 116 48.375 C116.5775 48.89835938 117.155 49.42171875 117.75 49.9609375 C119.96886955 53.58046845 119.399141 57.16142107 118.52246094 61.19970703 C117.8732198 63.61734285 117.14570844 65.99334773 116.375 68.375 C116.10792236 69.21409912 115.84084473 70.05319824 115.56567383 70.91772461 C113.54718992 76.9790766 111.01077859 81.99632508 107 87 C105.8632087 89.27358261 105.90243548 90.59824135 105.8125 93.125 C105.35327122 98.19133039 103.93822317 102.63496145 102.1875 107.375 C101.81492065 108.40971436 101.81492065 108.40971436 101.43481445 109.46533203 C100.27394973 112.48631523 99.2885689 114.72713185 96.91796875 116.96875 C94.12989997 119.92149087 93.8114572 123.25737952 93.125 127.125 C91.00218868 137.82467153 87.5319922 147.93296696 83.859375 158.18359375 C83.01386815 160.9545503 82.65983625 163.43565383 82.375 166.3125 C81.406053 173.20541562 79.27800501 179.53946216 77.0625 186.125 C74.20399175 194.64771902 71.97109303 202.87399969 70.92407227 211.81103516 C70.32740024 216.77439085 69.58572946 221.64070557 67 226 C64.0390625 228.1796875 64.0390625 228.1796875 60.625 229.875 C54.17918271 233.401622 51.20925701 236.98943691 49 244 C48.76023437 244.75410156 48.52046875 245.50820313 48.2734375 246.28515625 C46.79818873 251.86159658 45.33954412 259.67908825 48 265 C48.44666536 271.02998241 47.36598917 275.98526887 45.7734375 281.79296875 C44.99045162 285.03959202 44.60759585 288.18230518 44.25 291.5 C43.37797003 297.5969429 41.16949576 301.83990748 37.87890625 306.9921875 C35.33092829 311.07107113 33.31745442 315.35682915 31.26171875 319.69921875 C30 322 30 322 28 323 C23.07203209 323.37192211 19.83121045 323.28389467 16 320 C15.814375 319.01 15.62875 318.02 15.4375 317 C14.963125 316.01 14.48875 315.02 14 314 C11.75887358 313.21797484 11.75887358 313.21797484 9 312.75 C2.93909807 311.54218521 -1.66227963 309.19925285 -6.9375 306.125 C-18.77674964 299.34102682 -29.08064821 295.76600846 -42.63256836 294.15795898 C-50.73203151 293.15873286 -58.17906469 291.19273065 -65.91601562 288.66162109 C-68.11499251 287.9634923 -70.32508046 287.32854854 -72.546875 286.70703125 C-79.6980834 284.70312963 -86.51722404 282.72414789 -93 279 C-92.125 271.375 -92.125 271.375 -91 268 C-90.98123579 266.11732438 -90.96476153 264.23457565 -90.96411133 262.35180664 C-90.76907974 245.57372195 -83.19942384 229.79913575 -74 216 C-73.21187467 212.45343602 -72.96529535 209.49073598 -73.22265625 205.8515625 C-73.82310448 195.96054256 -71.27924945 190.58023559 -65 183 C-64.67 182.67 -64.34 182.34 -64 182 C-63.8669073 180.64836973 -63.76889008 179.29322627 -63.6875 177.9375 C-63.07488683 172.05270074 -60.81890224 167.735182 -57.56933594 162.84863281 C-53.32689572 156.34754898 -51.4614532 150.25050796 -49.9375 142.6875 C-49.44069985 140.3931001 -48.94329494 138.09883108 -48.4453125 135.8046875 C-48.08421387 134.09684082 -48.08421387 134.09684082 -47.71582031 132.35449219 C-46.64274339 127.32581657 -45.48807568 122.31804626 -44.3125 117.3125 C-44.12228271 116.47098389 -43.93206543 115.62946777 -43.73608398 114.76245117 C-42.6001242 109.89836541 -40.97918796 105.60055925 -39 101 C-38.11319132 97.71876601 -37.4405221 94.38669179 -36.80273438 91.04882812 C-35.90083575 86.98831511 -34.67029909 84.35004975 -32.02734375 81.11328125 C-28.52568333 76.74673683 -27.47863996 72.53613028 -26.375 67.125 C-25.97088068 65.35568271 -25.56207369 63.58742914 -25.1484375 61.8203125 C-24.85791504 60.56782715 -24.85791504 60.56782715 -24.56152344 59.29003906 C-22.88302062 52.4446667 -21.2070336 46.84244937 -15 43 C-13.948125 42.401875 -12.89625 41.80375 -11.8125 41.1875 C-8.28815009 38.44633896 -7.82748426 36.30291814 -7 32 C-7.804375 31.690625 -8.60875 31.38125 -9.4375 31.0625 C-12 30 -12 30 -13 29 C-13.56642314 23.22248399 -12.57337256 20.51373376 -9 16 C-8.50628906 15.46761719 -8.01257813 14.93523437 -7.50390625 14.38671875 C-3.40036952 9.93525122 -1.51393601 5.85654193 0 0 Z " fill="#FDFDFD" transform="translate(740,471)"/>
<path d="M0 0 C0.73202637 0.22461914 1.46405273 0.44923828 2.21826172 0.68066406 C34.17065444 10.78482692 60.4895226 34.25193713 75.87890625 63.71875 C81.2300048 74.341185 84.60446559 85.37948964 87 97 C87.18095215 97.8770459 87.3619043 98.7540918 87.54833984 99.65771484 C89.04334587 107.63772477 89.30102722 115.39517664 89.25 123.5 C89.25773437 124.72847656 89.26546875 125.95695313 89.2734375 127.22265625 C89.24993717 138.30306071 87.77874045 148.64429048 84.375 159.1875 C83.9869519 160.3933374 83.9869519 160.3933374 83.59106445 161.62353516 C72.45897493 195.04274298 49.29746625 220.22721912 18.4375 236.625 C-13.53336562 252.03696437 -48.83050528 254.72624587 -82.5625 243.375 C-115.73755605 231.37300891 -142.22788216 207.12448242 -157.18359375 175.23046875 C-160.51453222 167.72305946 -162.91722697 159.93413214 -165 152 C-165.17934082 151.31921387 -165.35868164 150.63842773 -165.54345703 149.93701172 C-173.61339359 117.56911324 -166.31743262 83.42835329 -149.5859375 55.14453125 C-131.51598636 25.69495764 -103.15337405 5.88397119 -69.85253906 -2.54345703 C-47.30009225 -7.75942257 -22.01499059 -6.89714496 0 0 Z M-71 34 C-72.55074219 34.54333984 -72.55074219 34.54333984 -74.1328125 35.09765625 C-86.1446707 39.62898383 -95.80672998 47.20051091 -105 56 C-105.77214844 56.69738281 -106.54429687 57.39476562 -107.33984375 58.11328125 C-113.60833163 63.9745853 -117.83829966 70.53005583 -122 78 C-122.55816406 78.98097656 -123.11632812 79.96195313 -123.69140625 80.97265625 C-134.34367379 100.80883364 -136.62949571 126.48844677 -130.328125 148.07421875 C-121.80864182 174.25524589 -104.65889227 195.38730543 -80 208 C-67.38063197 213.89099718 -55.12512984 216.24488883 -41.3125 216.3125 C-40.36262207 216.31805908 -39.41274414 216.32361816 -38.43408203 216.3293457 C-13.43427867 216.07618862 9.10654513 205.27429619 27.125 188.375 C36.72981546 178.39958072 43.08793884 166.84437615 48 154 C48.52207031 152.79730469 48.52207031 152.79730469 49.0546875 151.5703125 C55.62516053 133.70514203 54.74395447 112.85334044 49 95 C48.63777344 93.79859375 48.27554688 92.5971875 47.90234375 91.359375 C41.01101489 70.14809838 25.60531558 51.6491952 6 41 C-17.40640648 29.45130449 -45.9263179 24.27039053 -71 34 Z " fill="#FCFCFC" transform="translate(450,473)"/>
<path d="M0 0 C12.52107268 9.62189813 21.81853834 21.82447907 24.5625 37.6875 C25.65262058 49.48322491 25.24863112 60.67043677 20.5625 71.6875 C20.07136719 72.96753906 20.07136719 72.96753906 19.5703125 74.2734375 C13.83050177 87.5546054 1.56211296 98.00446352 -11.52734375 103.5859375 C-26.26127324 109.16307591 -41.0568554 109.54121355 -55.65234375 103.31640625 C-71.81629988 95.30169792 -81.63467499 83.45126375 -87.9375 66.6875 C-92.24696412 50.98873784 -90.60232666 33.69543176 -82.75 19.5 C-73.66282309 5.43542469 -61.11241642 -5.01151699 -44.64868164 -8.90893555 C-28.59434083 -11.83902557 -13.5878651 -8.91964151 0 0 Z " fill="#FDFDFD" transform="translate(442.4375,547.3125)"/>
<path d="M0 0 C4.74115616 2.67631619 7.47197502 6.07370656 9.58984375 11.1171875 C10.13580398 14.1738395 10.13108854 17.15809192 10.09777832 20.25718689 C10.10401828 21.15590486 10.11025825 22.05462282 10.1166873 22.98057467 C10.13259414 25.98072784 10.12002192 28.98006595 10.10742188 31.98022461 C10.11284404 34.13574191 10.11996724 36.2912555 10.12866211 38.44676208 C10.14688801 44.29389822 10.1398305 50.14075183 10.12714577 55.98789287 C10.1170131 62.11006474 10.12641232 68.23221255 10.13269043 74.35438538 C10.13996658 84.63628477 10.13038046 94.91806923 10.11132812 105.19995117 C10.08956533 117.08166659 10.09660673 128.96310739 10.11863375 140.84481615 C10.13679548 151.0505419 10.13934208 161.25618506 10.12887907 171.46192175 C10.12264769 177.55539389 10.12179875 183.64873703 10.13502502 189.74220085 C10.14659381 195.47228512 10.13853855 201.20201599 10.115448 206.93206215 C10.11016622 209.03308908 10.11166556 211.13414583 10.12049866 213.23516083 C10.13145865 216.10724135 10.11768465 218.97819537 10.09777832 221.85020447 C10.10670121 222.67813552 10.11562409 223.50606658 10.12481737 224.35908645 C10.03282372 231.22010807 8.11462907 236.59240218 3.21484375 241.4921875 C-3.01350648 245.34783288 -8.35445672 245.70299619 -15.41015625 244.1171875 C-20.70614352 241.37112003 -24.50069934 237.84555824 -26.41015625 232.1171875 C-26.5150101 229.21048811 -26.56234536 226.32734955 -26.5640564 223.42024231 C-26.56843865 222.52085849 -26.5728209 221.62147467 -26.57733595 220.6948368 C-26.59073446 217.66870747 -26.59690519 214.64260726 -26.60302734 211.61645508 C-26.61092748 209.45167916 -26.61919637 207.28690456 -26.62780762 205.12213135 C-26.6540379 198.00200663 -26.66933623 190.881876 -26.68359375 183.76171875 C-26.68895301 181.31175927 -26.69433052 178.86179984 -26.6997261 176.41184044 C-26.72135626 166.22150717 -26.74009339 156.0311755 -26.7513485 145.84082508 C-26.76759019 131.23111279 -26.80077195 116.62172461 -26.85774934 102.01211244 C-26.8964357 91.74279741 -26.91597966 81.47355354 -26.92126906 71.20416754 C-26.92492425 65.0692013 -26.93696394 58.93451855 -26.9693718 52.79963112 C-26.99942908 47.02691874 -27.00577231 41.25466174 -26.99398804 35.48188782 C-26.99376711 33.36471548 -27.00208789 31.24752216 -27.01964188 29.13042259 C-27.04233138 26.2360845 -27.03403915 23.34339799 -27.01815796 20.4490509 C-27.03898109 19.19722518 -27.03898109 19.19722518 -27.06022489 17.92011005 C-26.97882104 11.88402034 -25.25368432 7.78639855 -21.41015625 3.1171875 C-15.27205905 -1.89350409 -7.4975257 -2.74625739 0 0 Z " fill="#FBFBFA" transform="translate(615.41015625,478.8828125)"/>
<path d="M0 0 C1.47823242 -0.0309375 1.47823242 -0.0309375 2.98632812 -0.0625 C9.47321487 -0.09735231 14.08777 0.39071027 19.05078125 4.96875 C19.52902344 5.5565625 20.00726562 6.144375 20.5 6.75 C21.23669922 7.63171875 21.23669922 7.63171875 21.98828125 8.53125 C24.89015542 12.69028789 24.63733187 17.39348187 24.1875 22.25 C22.16326963 28.09777661 18.5510759 31.24225367 13.30810547 34.37182617 C9.19535071 36.07497824 4.70195372 35.57680722 0.3125 35.5625 C-0.66847656 35.57861328 -1.64945313 35.59472656 -2.66015625 35.61132812 C-8.90814715 35.61554404 -13.59919393 35.17473247 -18.421875 30.78515625 C-23.07978732 24.7713448 -24.63177946 20.82172792 -23.8125 13.25 C-21.998534 7.80810201 -18.42987362 4.4716675 -13.8125 1.25 C-9.26701791 -0.2651607 -4.76154489 0.02462337 0 0 Z " fill="#898989" transform="translate(967.8125,956.75)"/>
<path d="M0 0 C6.09155382 2.5807728 9.82644871 7.55133491 12.734375 13.3671875 C13.48685343 20.35448719 13.41348221 25.97506166 9.16015625 31.75 C5.13296121 36.31783218 0.92214396 38.9982129 -5.16796875 39.703125 C-11.38128494 39.78309046 -15.49503976 39.78870553 -20.265625 35.3671875 C-24.71687002 30.70397843 -27.54251994 26.7267055 -27.703125 20.1796875 C-27.5345677 13.15646685 -25.35287987 8.36163911 -20.31640625 3.4765625 C-13.97382467 -1.39709085 -7.65271882 -2.13748353 0 0 Z " fill="#1B1B1B" transform="translate(735.265625,675.6328125)"/>
<path d="M0 0 C3.32927403 2.91311477 4.86837827 4.63355862 5.296875 9.08203125 C4.92425327 13.99965753 3.68287797 18.36050902 2.25 23.0625 C1.69635314 24.92830786 1.14296842 26.79419352 0.58984375 28.66015625 C0.31769043 29.56781738 0.04553711 30.47547852 -0.23486328 31.41064453 C-0.91240473 33.7035624 -1.55899099 36.00080467 -2.18359375 38.30859375 C-2.51488281 39.52675781 -2.84617187 40.74492188 -3.1875 42 C-3.46980469 43.051875 -3.75210938 44.10375 -4.04296875 45.1875 C-5.41461013 49.21844608 -6.94285301 52.17142533 -10.3125 54.8125 C-13.60504457 56.26734528 -15.43423995 56.58216491 -19 56 C-24.49659843 52.78500847 -24.49659843 52.78500847 -25.5559082 49.02880859 C-26.18860021 43.36296655 -25.60059734 38.96790465 -23.875 33.5625 C-23.40401443 31.99767649 -22.93399186 30.43256288 -22.46484375 28.8671875 C-22.2210498 28.07022461 -21.97725586 27.27326172 -21.72607422 26.45214844 C-20.99467153 23.98200432 -20.33296157 21.50269555 -19.69140625 19.0078125 C-19.48080566 18.20013428 -19.27020508 17.39245605 -19.05322266 16.56030273 C-18.65290753 15.01761332 -18.26022343 13.47291652 -17.87646484 11.92602539 C-16.49736984 6.74582203 -14.57931039 3.02660102 -10.25 -0.375 C-6.6760537 -1.36776286 -3.47126605 -1.16854501 0 0 Z " fill="#1C1C1C" transform="translate(772,568)"/>
<path d="M0 0 C2 2 2 2 2.1953125 4.6015625 C2.17210937 5.59929688 2.14890625 6.59703125 2.125 7.625 C2.10695313 8.62789062 2.08890625 9.63078125 2.0703125 10.6640625 C2.03550781 11.82035156 2.03550781 11.82035156 2 13 C0.37536158 13.05395478 -1.24978541 13.09277195 -2.875 13.125 C-3.77992188 13.14820313 -4.68484375 13.17140625 -5.6171875 13.1953125 C-8 13 -8 13 -10 11 C-9.44444444 6.44444444 -9.44444444 6.44444444 -8 5 C-5.66702567 4.95907063 -3.33294775 4.95758277 -1 5 C-1 4.34 -1 3.68 -1 3 C-3.31 3.33 -5.62 3.66 -8 4 C-8.33 3.01 -8.66 2.02 -9 1 C-5.98675805 -0.50662097 -3.31713623 -0.17770373 0 0 Z " fill="#303030" transform="translate(968,970)"/>
<path d="M0 0 C0.99 0 1.98 0 3 0 C3 4.29 3 8.58 3 13 C2.01 13 1.02 13 0 13 C0 8.71 0 4.42 0 0 Z " fill="#1D1D1D" transform="translate(973,970)"/>
</svg>
