<?xml version="1.0" encoding="UTF-8"?>
<svg version="1.1" xmlns="http://www.w3.org/2000/svg" width="2000" height="2000">
<path d="M0 0 C660 0 1320 0 2000 0 C2000 660 2000 1320 2000 2000 C1340 2000 680 2000 0 2000 C0 1340 0 680 0 0 Z " fill="#354EAD" transform="translate(0,0)"/>
<path d="M0 0 C11.85510551 9.10793311 19.84795308 21.85328052 22.19140625 36.68359375 C23.00036491 47.02803584 22.77617737 57.42759688 22.65130615 67.79443359 C22.62135951 70.82141072 22.61768758 73.84817462 22.61472988 76.87528038 C22.61027492 79.82152914 22.59492904 82.76763781 22.57585335 85.71382523 C22.56707271 87.10667417 22.56029461 88.49953744 22.55569267 89.89240646 C22.46580637 108.98544775 17.86380204 124.68144047 4.56640625 138.80859375 C-8.38641087 151.27737435 -22.78786594 155.32302856 -40.28393555 155.15429688 C-58.0756025 154.6065472 -73.43273689 147.58365818 -85.80859375 134.68359375 C-89.20160672 130.85831211 -90.60509621 128.69632026 -90.31640625 123.625 C-89.58057123 120.81184612 -88.01786916 119.10446411 -85.640625 117.484375 C-83.03690096 116.34628667 -80.71607014 116.1678773 -77.9375 116.7109375 C-74.25154089 118.3949812 -71.87819958 121.39058333 -69.16015625 124.328125 C-61.53504444 131.96590311 -51.21096668 135.98331145 -40.51464844 136.20288086 C-39.68352539 136.19651611 -38.85240234 136.19015137 -37.99609375 136.18359375 C-37.12243164 136.17787354 -36.24876953 136.17215332 -35.34863281 136.16625977 C-25.17042326 135.88646263 -16.94042721 132.74620279 -9.55078125 125.6171875 C1.49990994 113.35240691 2.82420354 100.5035259 2.19140625 84.68359375 C1.76730469 85.26367188 1.34320312 85.84375 0.90625 86.44140625 C-7.18713127 97.22072284 -17.12693724 105.33947502 -30.80859375 107.68359375 C-48.74941385 109.38699259 -63.85725547 105.94510002 -77.99609375 94.43359375 C-88.45180666 84.80000343 -94.93944143 70.97296999 -96.02954102 56.8137207 C-96.9324031 32.81982529 -96.9324031 32.81982529 -91.80859375 22.68359375 C-91.37289062 21.74902344 -90.9371875 20.81445312 -90.48828125 19.8515625 C-83.29421764 5.4830912 -71.32589195 -4.2607033 -56.18359375 -9.37890625 C-37.12977733 -15.15421285 -16.18645294 -11.28829153 0 0 Z " fill="#FCF6EE" transform="translate(890.80859375,950.31640625)"/>
<path d="M0 0 C12.17330361 9.24018171 20.83332709 22.85590599 23.1171875 38.06640625 C23.43040256 42.96573079 23.47199902 47.86179754 23.48828125 52.76953125 C23.49726571 54.17958664 23.50638783 55.58964116 23.51564026 56.99969482 C23.53203071 59.93797103 23.53981359 62.87613453 23.54272461 65.81445312 C23.54813668 69.5728783 23.58597276 73.33024316 23.63146877 77.08836746 C23.66123143 79.99322387 23.66844777 82.89782267 23.66945076 85.8028183 C23.67364507 87.18869703 23.68604793 88.57457709 23.70696831 89.96030426 C23.73389311 91.89555204 23.72594877 93.8311893 23.71655273 95.76660156 C23.72162338 96.86530579 23.72669403 97.96401001 23.73191833 99.0960083 C22.91627985 103.03719809 21.17651075 104.5441745 18.1171875 107.06640625 C15.01343169 107.96989681 12.25834608 107.79479085 9.1171875 107.06640625 C5.66774654 104.33559882 3.3882286 102.10757999 2.80078125 97.68359375 C2.71957031 96.77867188 2.63835937 95.87375 2.5546875 94.94140625 C2.47089844 94.03132813 2.38710937 93.12125 2.30078125 92.18359375 C2.24019531 91.48492188 2.17960937 90.78625 2.1171875 90.06640625 C1.2509375 91.05640625 0.3846875 92.04640625 -0.5078125 93.06640625 C-3.97496718 96.54774152 -7.70686193 98.9658552 -11.9453125 101.37890625 C-12.5345752 101.71599609 -13.12383789 102.05308594 -13.73095703 102.40039062 C-25.87953538 109.11381098 -40.57581377 109.79581761 -54.03515625 106.94140625 C-68.62358613 102.458816 -80.2869349 93.32043757 -87.8828125 80.06640625 C-96.11975071 63.32964881 -97.87037888 43.92256505 -91.8828125 26.06640625 C-85.07558075 10.01683545 -73.84456981 -0.27028387 -58.3515625 -7.60546875 C-38.7405829 -15.1940652 -17.22844887 -11.55566693 0 0 Z " fill="#FCF6EE" transform="translate(1034.8828125,949.93359375)"/>
<path d="M0 0 C0.76699219 0.57492187 1.53398438 1.14984375 2.32421875 1.7421875 C2.97777344 2.21398437 3.63132812 2.68578125 4.3046875 3.171875 C15.6071304 12.0042476 22.15474744 26.85084405 24.32421875 40.7421875 C25.76143965 58.89448438 21.27176092 76.70396783 9.44921875 90.8046875 C-2.26796351 102.7959559 -16.74322765 108.84899287 -33.30078125 109.0546875 C-51.25010472 108.96385647 -66.15497753 104.29199241 -79.046875 91.53125 C-91.81847832 77.98158467 -95.43119512 61.18207116 -95.05078125 43.12109375 C-94.28668403 27.73272151 -87.26879145 14.31502063 -76.1015625 3.8046875 C-54.73695164 -14.36039226 -23.10774491 -16.09597777 0 0 Z " fill="#FBF6ED" transform="translate(650.67578125,949.2578125)"/>
<path d="M0 0 C11.84480808 10.00466444 17.8876758 22.94004477 20.40234375 38.0625 C21.2895268 49.64964832 21.2895268 49.64964832 18.40234375 54.0625 C14.55895854 56.62475681 11.43615269 56.32897551 6.98364258 56.28955078 C6.12489029 56.28984283 5.266138 56.29013489 4.38136292 56.29043579 C1.54059778 56.28904155 -1.29990564 56.2734759 -4.140625 56.2578125 C-6.10931759 56.25408271 -8.07801204 56.25123558 -10.04670715 56.24923706 C-15.23022581 56.24159796 -20.41363253 56.22194707 -25.59710693 56.1998291 C-30.88568609 56.17937665 -36.17428332 56.17023663 -41.46289062 56.16015625 C-51.84119504 56.13870147 -62.21941634 56.10456215 -72.59765625 56.0625 C-71.67114826 58.62646059 -70.73645723 61.18692632 -69.796875 63.74609375 C-69.40767883 64.82715393 -69.40767883 64.82715393 -69.01062012 65.93005371 C-64.67836649 77.66700997 -57.44656844 83.53327536 -46.453125 89.16015625 C-36.24985788 93.35461596 -23.70945996 91.84435431 -13.5703125 88.3515625 C-9.71160234 86.67827163 -6.28530803 84.52685323 -2.7421875 82.27734375 C0.24974797 80.58245863 2.0550393 80.22567389 5.40234375 81.0625 C8.77734375 83.125 8.77734375 83.125 11.40234375 86.0625 C12.08984375 89.5625 12.08984375 89.5625 11.40234375 93.0625 C3.46913071 102.38366007 -11.5188571 108.0724345 -23.59765625 109.0625 C-28.2700751 109.19244635 -32.92500891 109.17464354 -37.59765625 109.0625 C-38.81001953 109.03736328 -38.81001953 109.03736328 -40.046875 109.01171875 C-53.21110694 108.16005864 -67.07574324 100.64111448 -75.98046875 91.0546875 C-88.74912441 75.32518415 -92.27029755 57.83499463 -90.59765625 38.0625 C-88.0672809 22.96397354 -79.85423014 8.8185372 -67.4453125 -0.23828125 C-47.33243586 -13.07578828 -19.80167333 -14.76936838 0 0 Z " fill="#FBF6ED" transform="translate(1497.59765625,948.9375)"/>
<path d="M0 0 C2.2647514 1.65019574 4.26249909 3.37131816 6.26953125 5.32421875 C6.89085937 5.91847656 7.5121875 6.51273438 8.15234375 7.125 C20.42491198 19.95541224 22.75188318 36.54955239 22.703125 53.6015625 C22.70770078 55.02592717 22.71301042 56.45028966 22.7190094 57.87464905 C22.72785976 60.83197112 22.72560521 63.78902187 22.71557617 66.74633789 C22.70400644 70.52462212 22.72445921 74.30198272 22.75349331 78.08014584 C22.77186598 81.00993206 22.77156236 83.93949625 22.76585579 86.86932564 C22.76570318 88.26271437 22.77169716 89.65611871 22.78414726 91.04945183 C22.88795017 104.54749096 22.88795017 104.54749096 18.26953125 109.32421875 C15.99704887 110.46045994 14.48650361 110.58868718 11.95703125 110.69921875 C11.19777344 110.74820312 10.43851563 110.7971875 9.65625 110.84765625 C6.03418549 110.05329186 4.60804347 108.13495898 2.26953125 105.32421875 C1.65048218 102.28462219 1.65048218 102.28462219 1.65771484 98.85668945 C1.64775482 97.5679744 1.6377948 96.27925934 1.62753296 94.95149231 C1.64094067 93.55099419 1.65442111 92.15049677 1.66796875 90.75 C1.66246259 89.30135406 1.65433259 87.85271595 1.64370728 86.40409851 C1.62084051 82.59211456 1.6250269 78.7807042 1.63751221 74.96868896 C1.65581934 68.88642268 1.64559164 62.80449804 1.61165237 56.72231102 C1.60560999 54.61183115 1.61873463 52.50209892 1.63363647 50.39167786 C1.60120389 38.81865042 -0.09446231 29.32195094 -7.73046875 20.32421875 C-15.06095485 13.37315739 -22.99804103 10.74499313 -32.98046875 10.82421875 C-33.81094727 10.82921387 -34.64142578 10.83420898 -35.49707031 10.83935547 C-44.74616635 11.09976691 -53.47015079 13.86643148 -60.14772034 20.55680847 C-66.91477131 28.11338243 -67.42967836 35.60862241 -67.32205391 45.42650414 C-67.29639899 47.78596546 -67.30150499 50.14370026 -67.31394958 52.50325012 C-67.33457927 57.50626784 -67.31506492 62.50873736 -67.29296875 67.51171875 C-67.27181104 73.32410254 -67.26734161 79.13592537 -67.29347038 84.9482975 C-67.29681793 87.26518779 -67.27566496 89.58098933 -67.25306702 91.89775085 C-67.25557905 93.3240075 -67.25913984 94.75026281 -67.26391602 96.17651367 C-67.25771744 97.41511642 -67.25151886 98.65371918 -67.24513245 99.92985535 C-67.82463106 103.98277469 -69.18943374 106.15281362 -71.73046875 109.32421875 C-73.99030984 110.4541393 -75.52773362 110.62221831 -78.04296875 110.76171875 C-78.80222656 110.82230469 -79.56148437 110.88289063 -80.34375 110.9453125 C-83.34122741 110.16528155 -84.75599212 108.66451043 -86.65819931 106.27263069 C-88.7740189 102.42799239 -88.42257496 98.2807092 -88.37744141 93.99194336 C-88.386203 92.96522018 -88.3949646 91.93849701 -88.4039917 90.88066101 C-88.42595256 87.49552842 -88.41144476 84.11170777 -88.39453125 80.7265625 C-88.39790005 78.37056732 -88.4027532 76.01457383 -88.4090271 73.65858459 C-88.41639377 68.72493923 -88.40569789 63.79174694 -88.38232422 58.8581543 C-88.35382172 52.53375455 -88.37025225 46.21041499 -88.40018654 39.88605404 C-88.41825122 35.02271022 -88.41250538 30.15961794 -88.39954758 25.29626656 C-88.39621212 22.96425819 -88.40030548 20.63222699 -88.41194534 18.30024529 C-88.42464135 15.04191421 -88.40529299 11.78530256 -88.37744141 8.52709961 C-88.38756256 7.56332397 -88.39768372 6.59954834 -88.40811157 5.60656738 C-88.33503817 0.99331291 -88.23556475 -1.02358817 -85.33261108 -4.7719574 C-81.89991518 -7.28344505 -80.00423198 -7.40998132 -75.8828125 -7.15625 C-72.26502433 -6.34864937 -70.8199083 -4.65164969 -68.73046875 -1.67578125 C-67.81027372 0.6682945 -67.26484513 2.84665553 -66.73046875 5.32421875 C-66.05242187 4.793125 -65.374375 4.26203125 -64.67578125 3.71484375 C-45.65995628 -10.71822007 -20.65733056 -12.67810416 0 0 Z " fill="#FBF6ED" transform="translate(1178.73046875,946.67578125)"/>
<path d="M0 0 C8.98115118 7.56730269 14.41663541 17.58870436 15.59375 29.29296875 C15.96763147 43.3291023 13.02866107 55.52071801 3.296875 65.97265625 C-5.30938165 73.95207925 -13.50148611 76.06829207 -24.9375 76.1875 C-25.84564453 76.21650391 -26.75378906 76.24550781 -27.68945312 76.27539062 C-38.54468004 76.37640562 -46.69725982 71.68505956 -54.40625 64.28515625 C-64.71477361 53.10882325 -65.47354651 40.7103444 -64.92919922 26.24316406 C-64.14524074 15.88294977 -58.26876492 7.96785694 -50.875 1.125 C-36.70256125 -10.74407873 -14.86357997 -10.53148129 0 0 Z " fill="#364FAD" transform="translate(878.75,964.125)"/>
<path d="M0 0 C9.32544863 6.91845695 15.17967074 14.73418535 18 26 C18.39222064 29.32605766 18.43091267 32.59141618 18.375 35.9375 C18.36484863 36.81704346 18.35469727 37.69658691 18.34423828 38.6027832 C18.03318683 51.59822329 13.48941955 61.36504383 4.06640625 70.4296875 C-6.72051388 78.62693116 -19.05319543 78.96360832 -32 78 C-41.68878846 76.05285849 -50.10205874 69.22648745 -55.71875 61.25390625 C-58.09729467 57.06969809 -59.55869631 52.57521532 -61 48 C-61.495 46.515 -61.495 46.515 -62 45 C-62.91641135 31.19373725 -61.56979636 19.64451198 -52.9765625 8.25390625 C-49.70172122 4.51955167 -46.20033316 1.63920933 -42 -1 C-41.3090625 -1.43441406 -40.618125 -1.86882813 -39.90625 -2.31640625 C-28.31991347 -8.17076995 -10.74371535 -6.90552706 0 0 Z " fill="#364FAD" transform="translate(637,962)"/>
<path d="M0 0 C1.2528479 0.01353516 1.2528479 0.01353516 2.53100586 0.02734375 C14.01508769 0.34829626 22.58516512 4.18333261 30.6875 12.4375 C39.5953193 23.81132577 41.72239118 34.31263388 40.6875 48.4375 C38.82985305 59.44876961 34.21914686 69.64827458 25.06640625 76.359375 C13.37742119 84.03572339 1.23959284 85.48569492 -12.4921875 82.8203125 C-23.46139141 78.86018457 -30.99621912 70.54145429 -36.3125 60.4375 C-40.77487637 50.69154605 -41.16107124 36.70405925 -37.75 26.5 C-32.79824363 15.15222498 -25.11222081 6.59235677 -13.546875 1.7421875 C-9.02821678 0.14457431 -4.7607425 -0.06168388 0 0 Z " fill="#364FAD" transform="translate(998.3125,956.5625)"/>
<path d="M0 0 C7.44401491 5.50389272 12.97706581 14.77308729 14.75 23.859375 C16.1803285 36.10656278 14.15901378 47.82128518 6.7578125 57.9375 C-0.35985535 66.28889694 -8.03734276 71.54549511 -19 73 C-31.22647586 73.8370539 -41.48158379 72.63630535 -51.16015625 64.6796875 C-59.37026548 57.18425869 -64.63957028 49.34001152 -65.48046875 37.98046875 C-66.02267601 24.83490235 -64.38609852 14.9076688 -55.75 4.5625 C-51.60020375 0.27529327 -47.46796751 -2.6483916 -42 -5 C-41.30390625 -5.31710937 -40.6078125 -5.63421875 -39.890625 -5.9609375 C-26.06095018 -11.46252347 -12.17188333 -7.25276359 0 0 Z " fill="#364FAD" transform="translate(383,975)"/>
<path d="M0 0 C0.82321243 -0.00700928 1.64642487 -0.01401855 2.49458313 -0.02124023 C5.21352959 -0.03883378 7.93143373 -0.02719298 10.65039062 -0.01367188 C12.54081421 -0.01636641 14.43123644 -0.0202485 16.32165527 -0.02526855 C20.28276775 -0.03116544 24.24351933 -0.02259455 28.20458984 -0.00390625 C33.28251624 0.01888343 38.359597 0.00576136 43.43749237 -0.01819611 C47.34086481 -0.03264896 51.24403669 -0.02805045 55.14741516 -0.01768494 C57.01972046 -0.01501623 58.89204395 -0.01829246 60.764328 -0.02760315 C63.38113648 -0.03776038 65.99657485 -0.02228006 68.61328125 0 C69.38742874 -0.00809692 70.16157623 -0.01619385 70.95918274 -0.02453613 C74.49327193 0.03122113 76.42727783 0.22219049 79.25622559 2.42492676 C81.89349325 5.98454251 82.37291628 8.06826944 81.80664062 12.51757812 C78.30308836 19.51032383 72.71755937 25.5360446 67.86914062 31.63867188 C64.61113069 35.74811122 61.42373021 39.90981801 58.24414062 44.08007812 C57.69298584 44.80259766 57.14183105 45.52511719 56.57397461 46.26953125 C55.48981808 47.69084873 54.40575005 49.11223373 53.32177734 50.53369141 C51.15756327 53.36746575 48.9825517 56.19277299 46.80664062 59.01757812 C42.40686781 64.73156879 38.02493487 70.45904021 33.6472168 76.18994141 C31.0466138 79.59319965 28.4425987 82.99365237 25.82617188 86.38476562 C25.36726563 86.97966797 24.90835937 87.57457031 24.43554688 88.1875 C23.20205291 89.7851858 21.96728319 91.38188643 20.73242188 92.97851562 C19.36484105 94.78161407 18.06196054 96.63459825 16.80664062 98.51757812 C17.91751289 98.52637749 17.91751289 98.52637749 19.05082703 98.53535461 C26.03963597 98.59332538 33.02817265 98.66542727 40.01666546 98.75329304 C43.60931327 98.79796758 47.20184846 98.83722974 50.79467773 98.86401367 C54.2637976 98.89007635 57.73248337 98.93049868 61.201334 98.98076439 C63.16485907 99.00550034 65.1285522 99.01547039 67.09220886 99.02522278 C68.29307632 99.04501694 69.49394379 99.0648111 70.73120117 99.08520508 C71.78599167 99.09630814 72.84078217 99.10741119 73.92753601 99.11885071 C77.22736671 99.57584451 79.13278454 100.56009737 81.80664062 102.51757812 C83.38562116 105.67553919 83.62592233 109.12428448 82.80664062 112.51757812 C80.03027714 116.08834221 78.5653659 117.39228523 74.0433197 118.13903809 C72.55958192 118.16253202 71.0752513 118.1586646 69.59155273 118.1328125 C68.77794785 118.13836151 67.96434296 118.14391052 67.12608337 118.14962769 C64.44477896 118.16140996 61.76516979 118.1371665 59.08398438 118.11132812 C57.2174131 118.10961673 55.35083941 118.109683 53.48426819 118.1114502 C49.57611029 118.10979782 45.66852662 118.0911135 41.76049805 118.05957031 C36.75106597 118.01986543 31.74238488 118.01552873 26.73282528 118.02303314 C22.88006205 118.0261023 19.02746767 118.01398471 15.17474556 117.99690247 C13.32757183 117.98987194 11.48037897 117.986748 9.63319206 117.9875946 C7.05255392 117.98579707 4.4728164 117.96442054 1.89233398 117.9375 C1.12910828 117.9404306 0.36588257 117.94336121 -0.42047119 117.94638062 C-4.59865359 117.87912197 -7.22342659 117.58246034 -10.19335938 114.51757812 C-11.46881596 111.49292395 -11.500649 108.76201358 -11.19335938 105.51757812 C-10.10595703 103.38037109 -10.10595703 103.38037109 -8.60742188 101.25976562 C-8.05876465 100.47939941 -7.51010742 99.6990332 -6.94482422 98.89501953 C-4.17411494 95.13405397 -1.33860764 91.43341406 1.55664062 87.76757812 C2.79649929 86.18576265 4.0360811 84.60373013 5.27539062 83.02148438 C5.87738281 82.25465332 6.479375 81.48782227 7.09960938 80.69775391 C9.43615641 77.71357699 11.74967036 74.7121459 14.05664062 71.70507812 C14.84554688 70.67769531 15.63445312 69.6503125 16.44726562 68.59179688 C17.61515625 67.07005859 17.61515625 67.07005859 18.80664062 65.51757812 C20.89243168 62.80456227 22.97950541 60.09253331 25.06640625 57.38037109 C27.10105431 54.73580327 29.13452319 52.09035366 31.16601562 49.44335938 C31.95492188 48.41597656 32.74382812 47.38859375 33.55664062 46.33007812 C33.95230225 45.81469482 34.34796387 45.29931152 34.75561523 44.76831055 C37.32769465 41.42375346 39.91624586 38.09249486 42.51367188 34.76757812 C43.15143555 33.9505542 43.78919922 33.13353027 44.44628906 32.29174805 C45.71234063 30.67092556 46.97988121 29.0512649 48.24902344 27.43286133 C48.82620117 26.69382568 49.40337891 25.95479004 49.99804688 25.19335938 C50.51568604 24.53247314 51.0333252 23.87158691 51.56665039 23.19067383 C52.87332438 21.52860799 52.87332438 21.52860799 53.80664062 19.51757812 C53.03878235 19.51615311 52.27092407 19.51472809 51.47979736 19.51325989 C44.24035644 19.49542397 37.00162737 19.45379452 29.76250076 19.38548756 C26.04080409 19.35120828 22.31951827 19.32610628 18.59765625 19.32202148 C15.00517677 19.31774027 11.41362422 19.28929493 7.82143402 19.24414635 C6.45158031 19.23116521 5.0816157 19.22686593 3.71170807 19.23142433 C1.79177541 19.23632468 -0.12815312 19.20738817 -2.04785156 19.17700195 C-3.14039246 19.17034012 -4.23293335 19.16367828 -5.35858154 19.15681458 C-9.13211769 18.3058901 -10.16205672 16.72453507 -12.19335938 13.51757812 C-12.72460938 11.20117188 -12.72460938 11.20117188 -12.69335938 8.95507812 C-12.70367188 8.21128906 -12.71398438 7.4675 -12.72460938 6.70117188 C-11.11387451 0.08057785 -5.84576243 -0.0611417 0 0 Z " fill="#FDF7EE" transform="translate(1306.193359375,939.482421875)"/>
<path d="M0 0 C3.44996778 0.79999253 5.06552996 2.75592995 7.15625 5.5 C8.68922297 8.56594594 8.27756455 11.77111853 8.25390625 15.1328125 C8.2524913 15.88464813 8.25107635 16.63648376 8.24961853 17.41110229 C8.24401465 19.8157751 8.23146157 22.22035527 8.21875 24.625 C8.2137355 26.25390491 8.2091725 27.88281127 8.20507812 29.51171875 C8.19404397 33.50784827 8.17677679 37.50390842 8.15625 41.5 C8.85709717 41.47381592 9.55794434 41.44763184 10.2800293 41.4206543 C13.4677065 41.3164646 16.65502526 41.25160417 19.84375 41.1875 C20.94654297 41.14560547 22.04933594 41.10371094 23.18554688 41.06054688 C31.36347274 40.93701325 31.36347274 40.93701325 35.390625 43.796875 C37.70481357 47.33983627 37.83598832 49.34604362 37.15625 53.5 C35.28916495 55.86497439 33.83563569 57.16030715 31.15625 58.5 C29.4158083 58.58449628 27.67215278 58.60723024 25.9296875 58.59765625 C24.8984375 58.59443359 23.8671875 58.59121094 22.8046875 58.58789062 C21.72445313 58.57951172 20.64421875 58.57113281 19.53125 58.5625 C17.89929687 58.55573242 17.89929687 58.55573242 16.234375 58.54882812 C13.54161211 58.53701776 10.84895812 58.52054778 8.15625 58.5 C8.17116762 66.57638833 8.21295037 74.65201424 8.28834057 82.7280426 C8.32252446 86.47876871 8.34770697 90.22909126 8.35180664 93.97998047 C8.35610835 97.60488998 8.38472304 101.22889048 8.42968178 104.85351562 C8.44259758 106.23122854 8.44698552 107.60905057 8.44240379 108.98681641 C8.42205169 116.97050008 8.54759542 123.41091347 14.15625 129.5 C19.89222437 134.71996324 25.26077488 135.05799837 32.88671875 135.06640625 C36.78996391 135.58404091 38.37790189 136.77244436 41.15625 139.5 C42.56625664 142.32001327 42.40173451 144.37007255 42.15625 147.5 C40.93344335 150.19017463 39.97435764 151.93693791 37.52734375 153.62109375 C34.19665722 154.85569749 30.97438823 154.84097797 27.46875 154.8125 C26.75195068 154.80686035 26.03515137 154.8012207 25.29663086 154.79541016 C14.78500312 154.55496753 6.94092806 150.79681364 -0.7890625 143.71875 C-8.37988088 135.7007427 -11.97920133 126.09021316 -11.95727539 115.14916992 C-11.95719986 113.8882402 -11.95712433 112.62731049 -11.95704651 111.32817078 C-11.95194069 109.96226969 -11.9467247 108.59636902 -11.94140625 107.23046875 C-11.9395397 105.82513988 -11.93811692 104.41981035 -11.93711853 103.01448059 C-11.933312 99.32705875 -11.92349774 95.6396767 -11.91241455 91.95227051 C-11.90216025 88.18498269 -11.89761232 84.4176884 -11.89257812 80.65039062 C-11.8818737 73.266909 -11.8648198 65.88346009 -11.84375 58.5 C-12.86855469 58.54640625 -13.89335938 58.5928125 -14.94921875 58.640625 C-16.30986656 58.67816011 -17.67054605 58.71455841 -19.03125 58.75 C-19.70478516 58.78351562 -20.37832031 58.81703125 -21.07226562 58.8515625 C-24.67196574 58.92180055 -26.67723912 58.60262234 -29.765625 56.69921875 C-32.63918724 53.65821209 -32.91646343 51.64466535 -32.84375 47.5 C-31.07733828 44.69810554 -29.81325178 42.98475089 -26.84375 41.5 C-24.29217345 41.4283265 -21.76902029 41.40691558 -19.21875 41.4375 C-18.15914062 41.44426758 -18.15914062 41.44426758 -17.078125 41.45117188 C-15.33329725 41.46296125 -13.588513 41.48089676 -11.84375 41.5 C-11.86993408 40.43563721 -11.89611816 39.37127441 -11.9230957 38.2746582 C-12.01379776 34.31458673 -12.07107089 30.35460649 -12.1184082 26.39379883 C-12.14350714 24.68172755 -12.17759429 22.96976296 -12.22094727 21.25805664 C-12.28180739 18.79286355 -12.31000432 16.32909015 -12.33203125 13.86328125 C-12.35783768 13.10163162 -12.3836441 12.33998199 -12.41023254 11.55525208 C-12.41235955 7.4980366 -12.02527587 5.72662432 -9.45581055 2.51879883 C-6.02680348 -0.13139833 -4.18540132 -0.2232214 0 0 Z " fill="#FBF5ED" transform="translate(1689.84375,902.5)"/>
<path d="M0 0 C0.92103516 -0.020625 1.84207031 -0.04125 2.79101562 -0.0625 C9.84845889 -0.10257065 15.39803605 0.85987523 21.3125 5 C23.46718105 8.23202157 23.28766456 10.44868356 22.8125 14.25 C21.66430664 16.45092773 21.66430664 16.45092773 19.8125 18.25 C17.06030273 18.65649414 17.06030273 18.65649414 13.74609375 18.53515625 C12.53759766 18.50873047 11.32910156 18.48230469 10.08398438 18.45507812 C8.81876953 18.40802734 7.55355469 18.36097656 6.25 18.3125 C-5.87733215 17.88952694 -16.37743677 18.41879072 -26.1875 26.25 C-30.85106969 30.76848086 -33.93097125 34.93372138 -34.44578552 41.58898926 C-34.45006058 42.85964233 -34.45433563 44.13029541 -34.45874023 45.43945312 C-34.46658035 46.49651711 -34.46658035 46.49651711 -34.47457886 47.57493591 C-34.48478532 49.09831019 -34.49059339 50.62171902 -34.49246025 52.14512634 C-34.49613482 54.55821902 -34.51288988 56.97090473 -34.53321838 59.38391113 C-34.58853368 66.24202915 -34.61933081 73.10020592 -34.64379883 79.95849609 C-34.65968734 84.15948482 -34.68991561 88.36018222 -34.72856331 92.5610199 C-34.7401976 94.15893967 -34.74614352 95.75691154 -34.74624443 97.35487366 C-34.74643684 99.59040715 -34.76472694 101.82513825 -34.78686523 104.06054688 C-34.79447121 105.96652649 -34.79447121 105.96652649 -34.80223083 107.91101074 C-35.21911372 111.52398473 -35.99398015 113.37934407 -38.1875 116.25 C-42.19383751 118.92089167 -45.47741428 118.95693873 -50.1875 118.25 C-53.21965675 116.05168636 -54.00404398 114.80036806 -55.1875 111.25 C-55.2859596 109.82960698 -55.3309111 108.40513186 -55.34140015 106.98136902 C-55.35000061 106.11084396 -55.35860107 105.24031891 -55.36746216 104.34341431 C-55.37172211 103.3911496 -55.37598206 102.43888489 -55.38037109 101.45776367 C-55.38854858 100.45259201 -55.39672607 99.44742035 -55.40515137 98.41178894 C-55.42999405 95.08052161 -55.44651749 91.74929683 -55.4609375 88.41796875 C-55.46892302 86.71224921 -55.46892302 86.71224921 -55.47706985 84.97207069 C-55.50379497 78.95461323 -55.52317302 72.93717648 -55.53759766 66.91967773 C-55.55425502 60.70190886 -55.59904438 54.48466902 -55.6499691 48.26710033 C-55.6836059 43.48785282 -55.69517114 38.70873152 -55.70082474 33.9293766 C-55.70754569 31.63723006 -55.72278948 29.34509206 -55.74671555 27.05306053 C-55.77829573 23.8450731 -55.77841422 20.63852166 -55.77099609 17.43041992 C-55.78740143 16.48422791 -55.80380676 15.53803589 -55.82070923 14.56317139 C-55.77907123 10.16343114 -55.59831157 7.1716344 -52.79360962 3.65913391 C-50.1875 1.25 -50.1875 1.25 -47.90625 0.5234375 C-44.18826817 0.69362681 -41.63415406 1.03142461 -38.25 2.6875 C-35.38380195 6.24853394 -34.8254142 9.79412168 -34.1875 14.25 C-33.59324219 13.73050781 -32.99898437 13.21101562 -32.38671875 12.67578125 C-22.34426183 4.22637349 -13.03558998 0.07147685 0 0 Z " fill="#FBF5ED" transform="translate(762.1875,938.75)"/>
<path d="M0 0 C0.86496094 0.66515625 1.72992188 1.3303125 2.62109375 2.015625 C3.53761719 2.70140625 4.45414063 3.3871875 5.3984375 4.09375 C24.98707056 19.36903749 38.78777231 40.81277581 44.62109375 65.015625 C44.62109375 66.005625 44.62109375 66.995625 44.62109375 68.015625 C41.76953125 67.46484375 41.76953125 67.46484375 38.62109375 66.015625 C37.50889807 63.49609791 36.85058099 61.4683892 36.24609375 58.828125 C32.70676781 45.77178067 26.10224538 34.52658844 17.62109375 24.015625 C16.89535156 23.11328125 16.16960937 22.2109375 15.421875 21.28125 C-0.88306144 2.20043182 -26.29575218 -10.8891939 -51.37890625 -12.984375 C-62.17872565 -13.51089681 -72.77575146 -13.2649052 -83.37890625 -10.984375 C-84.55582031 -10.73945312 -85.73273438 -10.49453125 -86.9453125 -10.2421875 C-96.90590374 -7.89485317 -105.4796656 -3.94671377 -114.37890625 1.015625 C-115.36761719 1.56089844 -116.35632813 2.10617187 -117.375 2.66796875 C-141.03997461 16.71582741 -156.29384477 40.90348827 -163.01953125 67.109375 C-164.61129966 74.23692598 -164.83790394 81.10937687 -164.75390625 88.390625 C-164.74375488 89.66703857 -164.73360352 90.94345215 -164.72314453 92.25854492 C-164.27143726 119.67787652 -153.35410661 144.23492419 -134.62890625 164.203125 C-121.41737368 176.75408094 -104.97790941 185.534698 -87.37890625 190.015625 C-86.34121094 190.31339844 -85.30351562 190.61117188 -84.234375 190.91796875 C-61.21747541 196.84284089 -35.33460595 192.95315186 -14.37890625 182.015625 C-11.43128014 180.16495459 -8.56542367 178.229169 -5.6953125 176.26171875 C-3.18871767 174.91331445 -1.97542243 174.68515254 0.80859375 175.078125 C1.73671875 175.3875 2.66484375 175.696875 3.62109375 176.015625 C-10.9278093 191.61918831 -35.61279174 198.33166818 -56.32421875 199.3984375 C-87.1208629 200.30581661 -114.77566284 189.89939623 -137.37890625 169.015625 C-138.11496094 168.36078125 -138.85101563 167.7059375 -139.609375 167.03125 C-156.38563292 151.36001505 -169.25949881 125.69926234 -170.56787109 102.69287109 C-170.6469022 99.00659855 -170.65180689 95.32762805 -170.62890625 91.640625 C-170.63664062 90.403125 -170.644375 89.165625 -170.65234375 87.890625 C-170.58594868 56.35296708 -157.04219404 30.71365358 -135.16796875 8.80078125 C-99.04779965 -25.10383844 -40.16210841 -28.93950507 0 0 Z " fill="#F3EFEB" transform="translate(439.37890625,909.984375)"/>
<path d="M0 0 C5.58926192 3.42038427 5.58926192 3.42038427 6.55601883 7.13833618 C6.76852937 9.84789511 6.78766719 12.50104369 6.74462891 15.21875 C6.75193024 16.24532715 6.75923157 17.2719043 6.76675415 18.32958984 C6.78295633 21.72040138 6.75575707 25.1092984 6.7265625 28.5 C6.72552515 30.85742186 6.72656111 33.21484547 6.72958374 35.57226562 C6.72940434 40.51198162 6.70855533 45.45104451 6.67236328 50.390625 C6.62698803 56.722813 6.62590078 63.05404671 6.63939857 69.38635254 C6.64608121 74.25399255 6.63281243 79.12141494 6.61314011 83.98901367 C6.60544106 86.32380026 6.60313763 88.65861107 6.6063118 90.9934082 C6.60705347 94.25649137 6.58180584 97.5183507 6.54931641 100.78125 C6.55674866 102.22927002 6.55674866 102.22927002 6.56433105 103.70654297 C6.49616651 107.99543452 6.39436258 110.36463282 4.09066772 114.07617188 C0.85203537 117.05635468 -1.54407871 117.39149761 -5.9609375 117.359375 C-9.38006698 116.7567698 -10.93189052 114.63213933 -13 112 C-14.14832565 109.7033487 -14.13278139 108.39922625 -14.14717102 105.84489441 C-14.15432632 104.97429886 -14.16148163 104.10370331 -14.16885376 103.20672607 C-14.17154266 102.24929504 -14.17423157 101.29186401 -14.17700195 100.30541992 C-14.18357315 99.29878799 -14.19014435 98.29215607 -14.19691467 97.25502014 C-14.2166755 93.91350232 -14.22831605 90.57202947 -14.23828125 87.23046875 C-14.24439454 85.52150138 -14.24439454 85.52150138 -14.25063133 83.77800941 C-14.27150324 77.74873662 -14.28580052 71.71948667 -14.29516602 65.69018555 C-14.30623707 59.45555663 -14.34064215 53.22128398 -14.38033772 46.98678112 C-14.40645386 42.19899318 -14.41485338 37.41129079 -14.41844749 32.62343788 C-14.42332582 30.32489934 -14.43497503 28.02636492 -14.45348549 25.72789574 C-14.47777155 22.5125626 -14.47693095 19.29816 -14.4699707 16.08276367 C-14.48278076 15.13140533 -14.49559082 14.180047 -14.50878906 13.19985962 C-14.47508861 8.93353894 -14.38923072 6.62699501 -12.09562683 2.93232727 C-8.55338618 -0.33388793 -4.68564458 -1.08254547 0 0 Z " fill="#FCF6EE" transform="translate(1625,940)"/>
<path d="M0 0 C4.56944444 2.13888889 4.56944444 2.13888889 6 5 C6.10017831 6.42256316 6.13937801 7.84966148 6.14717102 9.27572632 C6.15432632 10.17300949 6.16148163 11.07029266 6.16885376 11.99476624 C6.17288712 13.47534767 6.17288712 13.47534767 6.17700195 14.98583984 C6.18357315 16.02333878 6.19014435 17.06083771 6.19691467 18.129776 C6.21667504 21.57349717 6.22831526 25.01717471 6.23828125 28.4609375 C6.24235678 29.63459492 6.2464323 30.80825233 6.25063133 32.01747513 C6.27150193 38.2271431 6.28580042 44.43678889 6.29516602 50.64648438 C6.30624358 57.07177733 6.34065653 63.49672522 6.38033772 69.92189598 C6.40643429 74.85290182 6.41485158 79.78382451 6.41844749 84.71489334 C6.42333003 87.08403484 6.434991 89.45317222 6.45348549 91.82224655 C6.47773255 95.13356957 6.47693826 98.44398721 6.4699707 101.75537109 C6.48278076 102.73837692 6.49559082 103.72138275 6.50878906 104.73417664 C6.45767647 111.38048198 6.45767647 111.38048198 4.09562683 114.57778931 C0.20271918 117.21973625 -3.3542766 117.8187865 -8 117 C-10.69105198 114.82425584 -12.45532928 113.08934144 -14 110 C-14.09779636 108.63030811 -14.13500446 107.2560263 -14.14044189 105.88285828 C-14.14615204 105.02067688 -14.15186218 104.15849548 -14.15774536 103.27018738 C-14.15886322 102.32210709 -14.15998108 101.37402679 -14.16113281 100.3972168 C-14.16609772 99.40033844 -14.17106262 98.40346008 -14.17617798 97.37637329 C-14.19082356 94.06731484 -14.19760578 90.75830433 -14.203125 87.44921875 C-14.20887471 85.15476988 -14.21463246 82.86032103 -14.22039795 80.56587219 C-14.23091491 75.74972306 -14.23675295 70.93359065 -14.24023438 66.11743164 C-14.24571897 59.94340108 -14.26974351 53.76959107 -14.29820633 47.59562969 C-14.31682245 42.85416517 -14.32203778 38.11275386 -14.32357025 33.37125587 C-14.32659988 31.09505826 -14.3346388 28.81886165 -14.34775543 26.54269981 C-14.36479333 23.35861782 -14.36294095 20.17507577 -14.35644531 16.9909668 C-14.3656601 16.0489592 -14.37487488 15.1069516 -14.3843689 14.13639832 C-14.35336584 9.28960648 -14.23554857 5.88712328 -11 2 C-7.29702456 -0.46865029 -4.29548969 -0.56100937 0 0 Z " fill="#FAF4ED" transform="translate(1253,940)"/>
<path d="M0 0 C7.44401491 5.50389272 12.97706581 14.77308729 14.75 23.859375 C16.1803285 36.10656278 14.15901378 47.82128518 6.7578125 57.9375 C-0.35985535 66.28889694 -8.03734276 71.54549511 -19 73 C-31.22647586 73.8370539 -41.48158379 72.63630535 -51.16015625 64.6796875 C-59.37026548 57.18425869 -64.63957028 49.34001152 -65.48046875 37.98046875 C-66.02267601 24.83490235 -64.38609852 14.9076688 -55.75 4.5625 C-51.60020375 0.27529327 -47.46796751 -2.6483916 -42 -5 C-41.30390625 -5.31710937 -40.6078125 -5.63421875 -39.890625 -5.9609375 C-26.06095018 -11.46252347 -12.17188333 -7.25276359 0 0 Z M-49 10.8125 C-50.04408011 12.17567549 -51.04692493 13.5717148 -52 15 C-52.64775391 15.94746094 -52.64775391 15.94746094 -53.30859375 16.9140625 C-57.30648652 24.0798357 -57.19487772 33.04924968 -56 41 C-53.22834456 50.32949679 -47.43119936 57.44718388 -38.9140625 62.15234375 C-31.10397774 65.30250805 -20.94653864 65.57694111 -13.125 62.4375 C-5.35281838 58.34154581 1.2511935 52.21485261 4.08203125 43.7734375 C6.2030791 35.05457697 6.63501927 24.00460471 2 16 C-3.86022825 7.84663896 -10.15746906 3.03764042 -20 1 C-31.42529189 -0.25360842 -40.95859877 2.27492721 -49 10.8125 Z " fill="#F8F3EC" transform="translate(383,975)"/>
<path d="M0 0 C9.31939342 5.4498513 14.97916314 13.76271955 18 24 C18 25.98 18 27.96 18 30 C-6.09 30 -30.18 30 -55 30 C-53.77191233 20.17529865 -50.47736431 12.4004623 -43.1328125 5.56640625 C-30.60834045 -3.63196975 -14.48265573 -6.36874219 0 0 Z " fill="#364FAD" transform="translate(1481,959)"/>
<path d="M0 0 C2.375 0.75 2.375 0.75 3.375 1.75 C3.48054346 4.08174803 3.52178558 6.38402486 3.52026367 8.71655273 C3.52530159 9.80922958 3.52530159 9.80922958 3.53044128 10.92398071 C3.5399786 13.34386884 3.54189578 15.76368798 3.54296875 18.18359375 C3.54617941 19.8588921 3.54954333 21.53419017 3.55305481 23.20948792 C3.55905305 26.72600963 3.560894 30.24250673 3.56030273 33.7590332 C3.56020107 38.27315104 3.57385411 42.78711172 3.59107494 47.30119228 C3.6021737 50.76264679 3.6042226 54.22406304 3.60369301 57.68553352 C3.60487631 59.35016484 3.60931755 61.01479704 3.61702538 62.67941093 C3.6267826 65.00440464 3.62396434 67.32905391 3.61791992 69.65405273 C3.62353943 70.34659653 3.62915894 71.03914032 3.63494873 71.75267029 C3.60331581 76.52168419 3.60331581 76.52168419 1.375 78.75 C-1.125 79.0625 -1.125 79.0625 -3.625 78.75 C-6.0929265 75.04811025 -5.88376118 73.17617128 -5.8996582 68.75585938 C-5.90476913 68.04822952 -5.90988007 67.34059967 -5.91514587 66.61152649 C-5.92904746 64.27218167 -5.92808493 61.93313122 -5.92578125 59.59375 C-5.92966748 57.96854543 -5.934002 56.34334188 -5.93876648 54.71813965 C-5.9462296 51.31189684 -5.94593648 47.90575768 -5.94067383 44.49951172 C-5.93487475 40.13118064 -5.95182005 35.76327295 -5.9750185 31.3950119 C-5.98973771 28.03901686 -5.99063011 24.68312426 -5.98750877 21.32710266 C-5.98802276 19.71632548 -5.993275 18.10554269 -6.00332069 16.49479675 C-6.015635 14.2442965 -6.00892472 11.99462722 -5.99731445 9.74414062 C-5.99794388 8.46301392 -5.9985733 7.18188721 -5.9992218 5.86193848 C-5.625 2.75 -5.625 2.75 -4.26579285 0.79724121 C-2.625 -0.25 -2.625 -0.25 0 0 Z " fill="#FDF7EE" transform="translate(419.625,968.25)"/>
<path d="M0 0 C4.14429249 2.4660904 7.24593294 5.45653848 9 10 C9.24137178 14.49756077 8.55333627 18.10321363 6.1875 21.9375 C1.91673411 25.96422213 -1.78774412 26.50124865 -7.5234375 26.3828125 C-11.66288025 25.74296173 -13.23117794 24.11492481 -16 21 C-18.37956049 17.27547054 -18.40575402 13.57395525 -17.7890625 9.29296875 C-15.18430033 1.72368461 -7.59758368 -2.19213436 0 0 Z " fill="#F9F4ED" transform="translate(1254,893)"/>
<path d="M0 0 C3.80285865 2.0090574 7.09334467 4.08076405 9 8 C9.77574305 13.63491133 9.29848042 18.22289043 6 23 C2.2525123 26.406807 -1.68477675 26.57050252 -6.55859375 26.41796875 C-10.65677189 25.71636065 -12.2477821 24.09624514 -15 21 C-17.28466838 17.05375462 -17.47409741 13.50392543 -17 9 C-13.2424427 1.76322299 -8.25534519 -1.47301257 0 0 Z " fill="#FBF5ED" transform="translate(1625,893)"/>
<path d="M0 0 C2.4375 1.5 2.4375 1.5 4 4 C4.61014545 6.8089715 4.65360928 9.19636021 4 12 C1.9375 14.5625 1.9375 14.5625 -1 16 C-4.77910616 16 -7.00693033 15.83289714 -9.9375 13.375 C-11.43699866 10.02317947 -11.45377473 7.63019782 -11 4 C-8.11188513 -0.5054592 -5.11821063 -0.73117295 0 0 Z " fill="#F7F2EC" transform="translate(460,1049)"/>
<path d="M0 0 C2.4375 1.5625 2.4375 1.5625 4 4 C4.56288002 7.94016013 4.60396028 10.05782196 2.4375 13.4375 C-0.94217804 15.60396028 -3.05983987 15.56288002 -7 15 C-9.4375 13.4375 -9.4375 13.4375 -11 11 C-11.56288002 7.05983987 -11.60396028 4.94217804 -9.4375 1.5625 C-6.05782196 -0.60396028 -3.94016013 -0.56288002 0 0 Z " fill="#FAF5ED" transform="translate(476,1011)"/>
</svg>
